<svg width="41" height="42" viewBox="0 0 41 42" fill="none" xmlns="http://www.w3.org/2000/svg">
<rect width="40" height="40" rx="10" fill="#212121"/>
<g filter="url(#filter0_d)">
<path d="M34.3812 21.2283C34.2508 21.4509 34.0935 21.6565 33.9128 21.8406C33.7492 22.01 33.5719 22.1656 33.3827 22.306C33.0161 22.5848 32.6102 22.7705 32.2165 22.9848C31.4242 23.4023 30.6268 23.8075 29.8242 24.2005L29.2206 24.4913L28.614 24.7749C28.2106 24.9663 27.803 25.1478 27.3965 25.332C26.5825 25.6978 25.7649 26.055 24.9475 26.4129L25.6622 25.5594C25.6299 25.7051 25.6014 25.8267 25.5698 25.9571C25.5389 26.0851 25.507 26.2124 25.4741 26.3389C25.409 26.5923 25.3397 26.8439 25.2681 27.0953C25.1223 27.5971 24.9609 28.0966 24.7838 28.5938C24.6053 29.0907 24.3988 29.5837 24.1694 30.0765C24.1092 30.1993 24.0542 30.3217 23.9881 30.444L23.7933 30.8106C23.7242 30.9327 23.6507 31.0546 23.5792 31.1763L23.5252 31.2675L23.5091 31.2942L23.4617 31.3656L23.4118 31.4352C23.3926 31.4604 23.3641 31.4941 23.3393 31.522C23.3135 31.5511 23.2867 31.5793 23.2592 31.6067C23.2217 31.6422 23.1795 31.6782 23.1372 31.711C23.0907 31.7479 23.0415 31.7813 22.9901 31.811C22.9278 31.847 22.8632 31.8787 22.7965 31.9058C22.7592 31.9208 22.721 31.9339 22.6822 31.9447C22.6411 31.9566 22.5993 31.9667 22.5572 31.975C22.4735 31.9922 22.3883 32.0005 22.3029 31.9999C22.2184 31.9999 22.1341 31.9924 22.051 31.9774C21.9802 31.9633 21.9106 31.9443 21.8425 31.9204C21.811 31.9094 21.7692 31.8935 21.7487 31.8835C21.7241 31.8723 21.6996 31.8604 21.6753 31.8479C21.6272 31.8231 21.579 31.7952 21.5349 31.7666C21.5023 31.7442 21.4703 31.7207 21.439 31.6962L21.3927 31.6588C21.3772 31.646 21.3616 31.6325 21.3525 31.6237C21.3105 31.5844 21.2661 31.5399 21.2305 31.5003C21.2009 31.4661 21.1721 31.4312 21.1442 31.3956C21.1189 31.3627 21.1004 31.3355 21.0788 31.3047C21.0565 31.273 21.0409 31.2477 21.0249 31.2218C21.0094 31.1963 20.9916 31.168 20.9786 31.1445L20.9398 31.0741C20.8582 30.9191 20.7866 30.759 20.7254 30.5949C20.6163 30.3062 20.5363 30.0421 20.4616 29.7802C20.3157 29.2592 20.1986 28.7545 20.0894 28.2508C19.8739 27.2449 19.6813 26.2513 19.4892 25.2585C19.1066 23.2745 18.7535 21.2957 18.3987 19.3174C18.0517 17.3383 17.7027 15.3611 17.3822 13.3798L17.1414 11.894C17.1022 11.6462 17.0621 11.3985 17.0181 11.1514C16.9731 10.9044 16.9257 10.6577 16.8928 10.409C16.8307 9.91113 16.7745 9.41242 16.7164 8.91376L16.6308 8.16506L16.6096 7.97737C16.6074 7.88321 16.58 8.03428 16.7473 8.41681C16.9052 8.72342 17.1726 8.95927 17.4963 9.07748C17.6845 9.14562 17.8855 9.17131 18.0848 9.1527C18.2841 9.1341 18.4768 9.07166 18.6492 8.96985C18.8216 8.86804 18.9695 8.72936 19.0822 8.56372C19.195 8.39807 19.2698 8.20955 19.3013 8.01161L19.2993 8.02317L19.2953 8.04627L19.2792 8.1387L19.2149 8.50839C18.8746 10.4806 18.5208 12.4506 18.172 14.4214C17.8259 16.3927 17.4708 18.3626 17.1366 20.3357L16.6288 23.2944C16.5875 23.5411 16.556 23.7893 16.5344 24.0391C16.5136 24.289 16.4973 24.5397 16.48 24.7902C16.4519 25.2915 16.3649 25.7877 16.2208 26.2687L15.9884 27.0077L15.6374 27.099C15.4847 27.1243 15.3282 27.1134 15.1805 27.0672C15.0126 27.028 14.845 26.9893 14.7148 27.0192C14.6509 27.0325 14.5909 27.0606 14.5397 27.1012C14.488 27.1406 14.4362 27.18 14.3858 27.2221C14.2847 27.3054 14.1859 27.393 14.0909 27.4876C13.8934 27.6834 13.7162 27.8989 13.5623 28.1307C13.4786 28.2556 13.4025 28.3854 13.3345 28.5194C13.2584 28.6669 13.1951 28.8206 13.1453 28.9789C13.0148 29.3959 12.7646 29.7653 12.426 30.0409C12.0873 30.3166 11.6751 30.4864 11.2408 30.5291C10.8065 30.5718 10.3692 30.4856 9.98343 30.2812C9.59768 30.0768 9.28053 29.7632 9.07149 29.3795C8.86245 28.9959 8.77076 28.5591 8.80785 28.1237C8.84494 27.6882 9.00917 27.2733 9.28007 26.9306C9.55098 26.588 9.91658 26.3327 10.3313 26.1967C10.7461 26.0606 11.1916 26.0498 11.6124 26.1656C11.7723 26.2093 11.9356 26.2392 12.1006 26.2549C12.25 26.2702 12.4001 26.2764 12.5503 26.2734C12.8282 26.2692 13.105 26.2366 13.3764 26.1762C13.5072 26.1474 13.6343 26.1117 13.7589 26.0716C13.8215 26.0519 13.8826 26.0296 13.9437 26.0074C14.0055 25.9862 14.0615 25.9509 14.1073 25.9043C14.2029 25.8108 14.2611 25.6488 14.319 25.4862C14.3602 25.3367 14.4357 25.1991 14.5396 25.0842L13.9562 25.9145C13.9654 25.4124 14.0336 24.9132 14.1594 24.4272C14.2193 24.1833 14.2801 23.9397 14.3363 23.6953C14.3914 23.4507 14.437 23.2046 14.4731 22.9571L14.8903 19.9841C15.1728 18.0028 15.4344 16.0182 15.7049 14.035C15.9728 12.0514 16.2356 10.067 16.512 8.08474L16.5633 7.71298L16.5761 7.62004L16.5793 7.5968L16.5809 7.58518C16.6096 7.40034 16.6746 7.22302 16.7722 7.06348C16.9019 6.85274 17.0852 6.68033 17.3034 6.56391C17.5215 6.4475 17.7667 6.39126 18.0137 6.40098C18.2607 6.41069 18.5007 6.486 18.7091 6.61919C18.9175 6.75238 19.0867 6.93866 19.1995 7.15893C19.3706 7.54843 19.3433 7.70763 19.3422 7.62113L19.3696 7.8055L19.4806 8.54473L19.7053 10.0243C19.74 10.2713 19.7605 10.5202 19.7839 10.7688C19.8083 11.0173 19.8369 11.2651 19.8668 11.5129L20.0449 12.9993C20.2894 14.9802 20.528 16.962 20.8051 18.9362C21.0764 20.9108 21.3801 22.8805 21.7428 24.8287C21.8359 25.315 21.928 25.8009 22.0349 26.2818C22.1392 26.763 22.2472 27.2421 22.3697 27.7124C22.4902 28.1824 22.6182 28.6483 22.7592 29.0858C22.8297 29.3025 22.9047 29.5145 22.9801 29.6909C23.0084 29.7604 23.0416 29.8278 23.0793 29.8927L23.0866 29.904C23.0888 29.9078 23.0886 29.9053 23.0894 29.9065C23.09 29.9072 23.0907 29.9085 23.0872 29.9018C23.084 29.8966 23.0806 29.8916 23.0768 29.8869C23.0688 29.8753 23.06 29.8644 23.0504 29.8542C23.0332 29.8339 23.0145 29.8148 22.9945 29.7972L22.9722 29.7773L22.9444 29.7542C22.9255 29.7393 22.9059 29.7253 22.8856 29.7125C22.8538 29.6906 22.8207 29.6709 22.7863 29.6535C22.7689 29.6447 22.7514 29.6365 22.7335 29.629C22.7196 29.6234 22.6859 29.6083 22.6617 29.5999C22.6086 29.5805 22.5539 29.5659 22.4981 29.5563C22.4305 29.5431 22.3618 29.5365 22.2929 29.5368C22.2231 29.5378 22.1535 29.5445 22.0848 29.5569C22.0503 29.5634 22.0161 29.5718 21.9825 29.582C21.9496 29.5917 21.9138 29.6055 21.8904 29.614C21.8377 29.6339 21.7869 29.6585 21.7386 29.6874C21.6842 29.7214 21.6625 29.7356 21.6295 29.7604C21.5994 29.7834 21.5708 29.8084 21.5439 29.8351C21.5266 29.8508 21.5103 29.8673 21.4948 29.8847C21.4801 29.9008 21.4627 29.9233 21.4528 29.936C21.4446 29.9459 21.4368 29.9563 21.4293 29.9669C21.4219 29.9775 21.4149 29.9884 21.4084 29.9995C21.407 30.0017 21.4136 29.9899 21.4159 29.9857L21.4552 29.9143L21.6129 29.6285L21.7622 29.3284C21.8132 29.2297 21.8566 29.1218 21.9051 29.0194C22.0965 28.6049 22.2712 28.1719 22.4338 27.7284C22.6004 27.2868 22.7544 26.8357 22.8974 26.3796C22.969 26.1517 23.0388 25.9227 23.1044 25.6933C23.1375 25.5786 23.1696 25.464 23.2005 25.3497L23.2872 25.0186L23.4523 24.3884L24.0019 24.1652C24.8285 23.8294 25.6549 23.4929 26.4848 23.1651C26.9004 23.0024 27.3148 22.8371 27.7333 22.6816L28.3597 22.445L28.9891 22.2155C29.8299 21.9134 30.6764 21.625 31.5288 21.3503C31.957 21.2178 32.3731 21.0566 32.8285 20.9886C33.0609 20.9511 33.296 20.9327 33.5314 20.9338C33.7891 20.9328 34.0459 20.9637 34.296 21.0258C34.3315 21.0351 34.3618 21.0581 34.3803 21.0897C34.3989 21.1214 34.4041 21.1591 34.3949 21.1946C34.3917 21.2064 34.3871 21.2177 34.3812 21.2283Z" fill="white"/>
</g>
<defs>
<filter id="filter0_d" x="2.7998" y="4.3999" width="37.5995" height="37.6" filterUnits="userSpaceOnUse" color-interpolation-filters="sRGB">
<feFlood flood-opacity="0" result="BackgroundImageFix"/>
<feColorMatrix in="SourceAlpha" type="matrix" values="0 0 0 0 0 0 0 0 0 0 0 0 0 0 0 0 0 0 127 0"/>
<feOffset dy="4"/>
<feGaussianBlur stdDeviation="3"/>
<feColorMatrix type="matrix" values="0 0 0 0 0 0 0 0 0 0 0 0 0 0 0 0 0 0 0.25 0"/>
<feBlend mode="normal" in2="BackgroundImageFix" result="effect1_dropShadow"/>
<feBlend mode="normal" in="SourceGraphic" in2="effect1_dropShadow" result="shape"/>
</filter>
</defs>
</svg>
